<svg version="1.1" id="el_FEIkxv1TD" xmlns="http://www.w3.org/2000/svg" xmlns:xlink="http://www.w3.org/1999/xlink" x="0px" y="0px" viewBox="0 0 501 501" style="enable-background:new 0 0 501.551 501.551;" xml:space="preserve"><style>@-webkit-keyframes el_IcW5ifV6Lt_Mv91gY5sb_Animation{12.82%{-webkit-transform: scale(1, 1);transform: scale(1, 1);}61.54%{-webkit-transform: scale(0, 1);transform: scale(0, 1);}0%{-webkit-transform: scale(1, 1);transform: scale(1, 1);}100%{-webkit-transform: scale(0, 1);transform: scale(0, 1);}}@keyframes el_IcW5ifV6Lt_Mv91gY5sb_Animation{12.82%{-webkit-transform: scale(1, 1);transform: scale(1, 1);}61.54%{-webkit-transform: scale(0, 1);transform: scale(0, 1);}0%{-webkit-transform: scale(1, 1);transform: scale(1, 1);}100%{-webkit-transform: scale(0, 1);transform: scale(0, 1);}}@-webkit-keyframes el_v0ae8y41v6_lbZRPimmY_Animation{12.82%{-webkit-transform: scale(1, 1);transform: scale(1, 1);}61.54%{-webkit-transform: scale(0, 1);transform: scale(0, 1);}0%{-webkit-transform: scale(1, 1);transform: scale(1, 1);}100%{-webkit-transform: scale(0, 1);transform: scale(0, 1);}}@keyframes el_v0ae8y41v6_lbZRPimmY_Animation{12.82%{-webkit-transform: scale(1, 1);transform: scale(1, 1);}61.54%{-webkit-transform: scale(0, 1);transform: scale(0, 1);}0%{-webkit-transform: scale(1, 1);transform: scale(1, 1);}100%{-webkit-transform: scale(0, 1);transform: scale(0, 1);}}@-webkit-keyframes el_Z-tLhhl4wQ_6q9LON7Ga_Animation{0%{-webkit-transform: scale(1, 1);transform: scale(1, 1);}12.82%{-webkit-transform: scale(1, 1);transform: scale(1, 1);}61.54%{-webkit-transform: scale(0, 1);transform: scale(0, 1);}100%{-webkit-transform: scale(0, 1);transform: scale(0, 1);}}@keyframes el_Z-tLhhl4wQ_6q9LON7Ga_Animation{0%{-webkit-transform: scale(1, 1);transform: scale(1, 1);}12.82%{-webkit-transform: scale(1, 1);transform: scale(1, 1);}61.54%{-webkit-transform: scale(0, 1);transform: scale(0, 1);}100%{-webkit-transform: scale(0, 1);transform: scale(0, 1);}}@-webkit-keyframes el_IcW5ifV6Lt_Animation{12.82%{opacity: 1;}61.54%{opacity: 0;}0%{opacity: 1;}100%{opacity: 0;}}@keyframes el_IcW5ifV6Lt_Animation{12.82%{opacity: 1;}61.54%{opacity: 0;}0%{opacity: 1;}100%{opacity: 0;}}@-webkit-keyframes el_v0ae8y41v6_Animation{12.82%{opacity: 1;}61.54%{opacity: 0;}0%{opacity: 1;}100%{opacity: 0;}}@keyframes el_v0ae8y41v6_Animation{12.82%{opacity: 1;}61.54%{opacity: 0;}0%{opacity: 1;}100%{opacity: 0;}}@-webkit-keyframes el_Z-tLhhl4wQ_Animation{0%{opacity: 1;}12.82%{opacity: 1;}61.54%{opacity: 0;}100%{opacity: 0;}}@keyframes el_Z-tLhhl4wQ_Animation{0%{opacity: 1;}12.82%{opacity: 1;}61.54%{opacity: 0;}100%{opacity: 0;}}@-webkit-keyframes el_IcW5ifV6Lt_xoVe_Rt9N_Animation{0%{-webkit-transform: translate(0px, 0px);transform: translate(0px, 0px);}12.82%{-webkit-transform: translate(0px, 0px);transform: translate(0px, 0px);}61.54%{-webkit-transform: translate(0px, 100px);transform: translate(0px, 100px);}100%{-webkit-transform: translate(0px, 100px);transform: translate(0px, 100px);}}@keyframes el_IcW5ifV6Lt_xoVe_Rt9N_Animation{0%{-webkit-transform: translate(0px, 0px);transform: translate(0px, 0px);}12.82%{-webkit-transform: translate(0px, 0px);transform: translate(0px, 0px);}61.54%{-webkit-transform: translate(0px, 100px);transform: translate(0px, 100px);}100%{-webkit-transform: translate(0px, 100px);transform: translate(0px, 100px);}}@-webkit-keyframes el_v0ae8y41v6_ENkL1J0Ck_Animation{0%{-webkit-transform: translate(0px, 0px);transform: translate(0px, 0px);}12.82%{-webkit-transform: translate(0px, 0px);transform: translate(0px, 0px);}61.54%{-webkit-transform: translate(0px, 100px);transform: translate(0px, 100px);}100%{-webkit-transform: translate(0px, 100px);transform: translate(0px, 100px);}}@keyframes el_v0ae8y41v6_ENkL1J0Ck_Animation{0%{-webkit-transform: translate(0px, 0px);transform: translate(0px, 0px);}12.82%{-webkit-transform: translate(0px, 0px);transform: translate(0px, 0px);}61.54%{-webkit-transform: translate(0px, 100px);transform: translate(0px, 100px);}100%{-webkit-transform: translate(0px, 100px);transform: translate(0px, 100px);}}@-webkit-keyframes el_Z-tLhhl4wQ_zq1_rE9EU_Animation{0%{-webkit-transform: translate(0px, 0px);transform: translate(0px, 0px);}12.82%{-webkit-transform: translate(0px, 0px);transform: translate(0px, 0px);}61.54%{-webkit-transform: translate(0px, 100px);transform: translate(0px, 100px);}100%{-webkit-transform: translate(0px, 100px);transform: translate(0px, 100px);}}@keyframes el_Z-tLhhl4wQ_zq1_rE9EU_Animation{0%{-webkit-transform: translate(0px, 0px);transform: translate(0px, 0px);}12.82%{-webkit-transform: translate(0px, 0px);transform: translate(0px, 0px);}61.54%{-webkit-transform: translate(0px, 100px);transform: translate(0px, 100px);}100%{-webkit-transform: translate(0px, 100px);transform: translate(0px, 100px);}}#el_FEIkxv1TD *{-webkit-animation-duration: 1.3s;animation-duration: 1.3s;
animation-iteration-count: infinite;-webkit-animation-timing-function: cubic-bezier(0, 0, 1, 1);animation-timing-function: cubic-bezier(0, 0, 1, 1);}#el_NbZGfniQUo{fill: #F1543F;}#el_FQcLFZBmkg{fill: #F1543F;}#el_1Rgpd6XwNA{fill: #40596B;}#el_GMWMvlNsdZ{fill: #F1543F;}#el_wHK8wEGlj6{fill: #F1543F;}#el_h0AnWOuB_A{fill: #FF7058;}#el_jxPZK_g3wD{fill: #40596B;}#el_ski2J3lt2R{fill: #F1543F;}#el_Z-tLhhl4wQ{fill: #FFD15C;-webkit-animation-name: el_Z-tLhhl4wQ_Animation;animation-name: el_Z-tLhhl4wQ_Animation;opacity: 1;}#el_v0ae8y41v6{fill: #F8B64C;-webkit-animation-name: el_v0ae8y41v6_Animation;animation-name: el_v0ae8y41v6_Animation;opacity: 1;}#el_IcW5ifV6Lt{fill: #FFD15C;-webkit-animation-name: el_IcW5ifV6Lt_Animation;animation-name: el_IcW5ifV6Lt_Animation;opacity: 1;}#el_Z-tLhhl4wQ_zq1_rE9EU{-webkit-transform-origin: 50% 50%;transform-origin: 50% 50%;transform-box: fill-box;-webkit-transform: translate(0px, 0px);transform: translate(0px, 0px);-webkit-animation-name: el_Z-tLhhl4wQ_zq1_rE9EU_Animation;animation-name: el_Z-tLhhl4wQ_zq1_rE9EU_Animation;}#el_v0ae8y41v6_ENkL1J0Ck{-webkit-transform-origin: 50% 50%;transform-origin: 50% 50%;transform-box: fill-box;-webkit-transform: translate(0px, 0px);transform: translate(0px, 0px);-webkit-animation-name: el_v0ae8y41v6_ENkL1J0Ck_Animation;animation-name: el_v0ae8y41v6_ENkL1J0Ck_Animation;}#el_IcW5ifV6Lt_xoVe_Rt9N{-webkit-transform-origin: 50% 50%;transform-origin: 50% 50%;transform-box: fill-box;-webkit-transform: translate(0px, 0px);transform: translate(0px, 0px);-webkit-animation-name: el_IcW5ifV6Lt_xoVe_Rt9N_Animation;animation-name: el_IcW5ifV6Lt_xoVe_Rt9N_Animation;}#el_Z-tLhhl4wQ_6q9LON7Ga{-webkit-transform-origin: 50% 50%;transform-origin: 50% 50%;transform-box: fill-box;-webkit-transform: scale(1, 1);transform: scale(1, 1);-webkit-animation-name: el_Z-tLhhl4wQ_6q9LON7Ga_Animation;animation-name: el_Z-tLhhl4wQ_6q9LON7Ga_Animation;}#el_v0ae8y41v6_lbZRPimmY{-webkit-animation-name: el_v0ae8y41v6_lbZRPimmY_Animation;animation-name: el_v0ae8y41v6_lbZRPimmY_Animation;-webkit-transform-origin: 50% 50%;transform-origin: 50% 50%;transform-box: fill-box;-webkit-transform: scale(1, 1);transform: scale(1, 1);}#el_IcW5ifV6Lt_Mv91gY5sb{-webkit-animation-name: el_IcW5ifV6Lt_Mv91gY5sb_Animation;animation-name: el_IcW5ifV6Lt_Mv91gY5sb_Animation;-webkit-transform-origin: 50% 50%;transform-origin: 50% 50%;transform-box: fill-box;-webkit-transform: scale(1, 1);transform: scale(1, 1);}</style>
<g id="el_NksTMjagbS">
	<path d="M485.616,269.584v10.449c0,6.269-4.18,10.449-10.449,10.449h-37.616v15.673h42.841&#10;&#9;&#9;c11.494,0,20.898-9.404,20.898-20.898v-15.673c0-4.18-3.135-8.359-8.359-8.359l0,0&#10;&#9;&#9;C488.751,261.224,485.616,264.359,485.616,269.584z" id="el_NbZGfniQUo"/>
	<path d="M206.629,463.935c-2.09,20.898-19.853,37.616-41.796,37.616h-1.045&#10;&#9;&#9;c-22.988,0-41.796-18.808-41.796-41.796v-24.033C147.069,449.306,176.327,458.71,206.629,463.935z" id="el_FQcLFZBmkg"/>
</g>
<path d="M71.837,199.576c26.122-14.629,54.335-24.033,80.457-27.167l-57.469-57.469&#10;&#9;c-17.763,17.763-26.122,39.706-26.122,62.694C69.747,183.902,70.792,192.261,71.837,199.576z" id="el_1Rgpd6XwNA"/>
<g id="el_nYA1ppfotm">
	<path d="M11.233,254.955c-14.629,14.629-14.629,71.053,0,85.682c7.314,7.314,41.796,0,41.796,0v-85.682&#10;&#9;&#9;C51.984,254.955,18.547,247.641,11.233,254.955z" id="el_GMWMvlNsdZ"/>
	<path d="M374.857,435.722v24.033c0,22.988-18.808,41.796-41.796,41.796h-1.045&#10;&#9;&#9;c-21.943,0-39.706-16.718-41.796-37.616C321.567,458.71,349.78,449.306,374.857,435.722z" id="el_wHK8wEGlj6"/>
</g>
<ellipse cx="248.424" cy="297.796" rx="219.429" ry="169.273" id="el_h0AnWOuB_A"/>
<circle cx="95.869" cy="250.776" r="12.539" id="el_jxPZK_g3wD"/>
<path d="M317.388,171.363H180.506c-4.18,0-8.359,3.135-8.359,8.359l0,0c0,4.18,3.135,8.359,8.359,8.359&#10;&#9;h136.882c4.18,0,7.314-3.135,7.314-8.359l0,0C324.702,175.543,321.567,171.363,317.388,171.363z" id="el_ski2J3lt2R"/>
<g id="el_Z-tLhhl4wQ_zq1_rE9EU" data-animator-group="true" data-animator-type="0"><g id="el_Z-tLhhl4wQ_6q9LON7Ga" data-animator-group="true" data-animator-type="2"><circle cx="248.424" cy="89.861" r="89.861" id="el_Z-tLhhl4wQ"/></g></g>
<g id="el_v0ae8y41v6_ENkL1J0Ck" data-animator-group="true" data-animator-type="0"><g id="el_v0ae8y41v6_lbZRPimmY" data-animator-group="true" data-animator-type="2"><circle cx="248.424" cy="89.861" r="67.918" id="el_v0ae8y41v6"/></g></g>
<g id="el_IcW5ifV6Lt_xoVe_Rt9N" data-animator-group="true" data-animator-type="0"><g id="el_IcW5ifV6Lt_Mv91gY5sb" data-animator-group="true" data-animator-type="2"><path d="M237.975,117.029c-2.09-2.09-3.135-5.224-4.18-9.404l-17.763,2.09&#10;&#9;c1.045,8.359,4.18,15.673,9.404,19.853c5.224,5.224,11.494,7.314,18.808,8.359v8.359h9.404v-9.404&#10;&#9;c8.359-1.045,15.673-4.18,19.853-10.449c5.224-5.224,7.314-12.539,7.314-19.853s-2.09-13.584-6.269-17.763&#10;&#9;c-4.18-4.18-11.494-8.359-21.943-11.494V53.29c4.18,2.09,7.314,5.224,8.359,10.449l16.718-2.09&#10;&#9;c-1.045-6.269-4.18-11.494-8.359-15.673c-4.18-4.18-9.404-6.269-16.718-7.314v-7.314H243.2v6.269&#10;&#9;c-7.314,1.045-13.584,3.135-18.808,8.359c-4.18,5.224-7.314,11.494-7.314,18.808s2.09,13.584,6.269,18.808&#10;&#9;c4.18,5.224,10.449,8.359,18.808,11.494v28.212C241.11,122.253,239.02,120.163,237.975,117.029z M253.649,98.22&#10;&#9;c4.18,1.045,7.314,3.135,8.359,5.224c1.045,2.09,3.135,5.224,3.135,7.314c0,3.135-1.045,6.269-3.135,8.359&#10;&#9;c-2.09,2.09-5.224,4.18-8.359,4.18V98.22z M237.975,71.053c-1.045-2.09-2.09-4.18-2.09-6.269c0-2.09,1.045-5.224,2.09-7.314&#10;&#9;s3.135-3.135,6.269-4.18v22.988C241.11,75.233,239.02,73.143,237.975,71.053z" id="el_IcW5ifV6Lt"/></g></g>
<g id="el_Knvjq6EVJK">
</g>
<g id="el_XGhT-A7pbe">
</g>
<g id="el_WRyz2qN3Q75">
</g>
<g id="el_INz9TVLbajc">
</g>
<g id="el_jhEovRvmaek">
</g>
<g id="el_dInMh5DQpbE">
</g>
<g id="el_X0i4vhDQ1ZD">
</g>
<g id="el_TKVyad2JsRo">
</g>
<g id="el_CWQfWaMzp9K">
</g>
<g id="el_AsXZbxhMOqg">
</g>
<g id="el_OlWHRkqO0D1">
</g>
<g id="el_u-AxFD6J2Ds">
</g>
<g id="el_BLZAKF8nIxJ">
</g>
<g id="el_Hfik4NusBay">
</g>
<g id="el_sH5aACzxom5">
</g>
<script>(function(){var a=document.querySelector('#el_FEIkxv1TD'),b=a.querySelectorAll('style'),c=function(d){b.forEach(function(f){var g=f.textContent;g&amp;&amp;(f.textContent=g.replace(/transform-box:[^;\r\n]*/gi,'transform-box: '+d))})};c('initial'),window.requestAnimationFrame(function(){return c('fill-box')})})();</script></svg>